<svg width="1917" height="1042" viewBox="0 0 1917 1042" fill="none" xmlns="http://www.w3.org/2000/svg">
<g id="city-01 1" clip-path="url(#clip0)">
<g id="Group">
<g id="Group_2">
<g id="Group_3">
<path id="Vector" d="M1916.94 0H4.7627V1020.17H1916.94V0Z" fill="white"/>
</g>
</g>
</g>
<g id="city-mo">
<g id="Group_4">
<path id="Vector_2" d="M1857.04 1040.9C1918.54 957.056 1878.89 417.126 1779.73 362.433C1670.79 302.348 1583.26 402.492 1497.67 322.968C1460.34 288.284 1491.18 202.21 1414.02 173.935C1305.64 134.217 1034.05 283.498 1076.84 173.347C1119.63 63.1901 828.497 -12.7995 550.812 1.79398C273.128 16.3757 324.676 165.685 328.567 189.834C332.457 213.987 373.309 330.618 215.093 384.223C56.8774 437.829 93.191 510.873 108.755 552.695C122.31 589.12 198.882 632.218 87.3576 726.47C-5.49766 804.941 19.0111 999.837 45.984 1039.8L1857.04 1040.9Z" fill="#EAFCFC"/>
<path id="Vector_3" opacity="0.8" d="M679.339 353.266C675.772 339.161 661.875 328.636 645.268 328.636C642.216 328.636 639.261 328.995 636.443 329.659C628.247 313.731 610.453 302.695 589.823 302.695C584.488 302.695 579.344 303.43 574.505 304.8C563.396 288.089 543.222 276.918 520.164 276.918C492.736 276.918 469.378 292.734 460.523 314.872C454.258 311.697 447.045 309.886 439.359 309.886C415.318 309.886 395.828 327.589 395.828 349.433C395.828 350.726 395.9 352.008 396.037 353.272H679.339V353.266Z" fill="white"/>
<path id="Vector_4" opacity="0.8" d="M624.206 147.817C627.252 135.769 639.117 126.785 653.302 126.785C655.904 126.785 658.434 127.091 660.838 127.661C667.84 114.062 683.032 104.636 700.653 104.636C705.209 104.636 709.598 105.265 713.734 106.436C723.219 92.1654 740.449 82.6285 760.138 82.6285C783.562 82.6285 803.508 96.1343 811.068 115.038C816.416 112.327 822.579 110.781 829.138 110.781C849.666 110.781 866.309 125.897 866.309 144.548C866.309 145.653 866.249 146.747 866.129 147.823H624.206V147.817Z" fill="white"/>
<path id="Vector_5" opacity="0.8" d="M897.784 333.605C899.499 326.831 906.165 321.78 914.139 321.78C915.602 321.78 917.023 321.951 918.378 322.274C922.311 314.631 930.854 309.333 940.758 309.333C943.318 309.333 945.788 309.686 948.108 310.344C953.438 302.324 963.127 296.962 974.194 296.962C987.36 296.962 998.571 304.553 1002.82 315.177C1005.83 313.655 1009.29 312.784 1012.98 312.784C1024.52 312.784 1033.87 321.281 1033.87 331.764C1033.87 332.387 1033.84 332.999 1033.77 333.605H897.784Z" fill="white"/>
<path id="Vector_6" opacity="0.8" d="M1281.37 381.671C1284.04 371.105 1294.45 363.221 1306.89 363.221C1309.18 363.221 1311.39 363.485 1313.5 363.985C1319.64 352.055 1332.97 343.788 1348.43 343.788C1352.42 343.788 1356.27 344.341 1359.9 345.364C1368.22 332.852 1383.33 324.479 1400.6 324.479C1421.14 324.479 1438.64 336.321 1445.27 352.908C1449.96 350.532 1455.36 349.174 1461.12 349.174C1479.12 349.174 1493.72 362.433 1493.72 378.79C1493.72 379.76 1493.67 380.719 1493.57 381.665H1281.37V381.671Z" fill="white"/>
<path id="Vector_7" opacity="0.5" d="M1769.63 779.759H1720.58V682.09H1693.2V725.577H1654.14V711.577V625.369H1590.2V716.998L1571.07 717.586V625.198H1548.75V585.827H1535.36V559.386H1483.07V585.827H1469.69V625.198H1447.37V675.246L1437.07 675.834L1433.98 527.559H1365.12V606.442L1340.88 607.03V483.744H1332.6V457.726H1259.91V483.744H1251.62V628.344H1236.31V598.081H1223.56V572.745H1205.07V498.808H1178.29V572.745H1159.8V598.081H1147.04V648.164L1131.1 648.082V584.093L978.576 588.773L942.364 672.548H926.423V642.579H886.722V440.657H850.367V461.812H833.784V626.021H776.379V655.99H727.703V585.833L650.795 584.175V685.718L643.781 685.801H634.848V598.157H622.09V572.827H603.594V498.884H576.807V572.827H558.306V598.157H545.554V649.964H530.242V483.826H521.95V457.808H449.239V483.826H440.948V607.112L416.709 606.524V527.642H377.871L377.254 675.917L366.312 675.329V525.619H312.103V486.248H298.709V459.807H246.406V486.248H233.007V625.28H210.687V717.669L191.55 717.081V625.451L127.586 686.071V711.66V725.659H84.9292V1032.86L937.191 1032.82L1769.63 1032.78V779.759Z" fill="#C5DDF9"/>
<path id="Vector_8" d="M1265.56 1008.33C1034.31 983.955 744.706 747.302 548.312 719.703C341.222 690.598 128.359 1014.76 128.359 1014.76L1265.55 1011.92V1008.33H1265.56Z" fill="#86B1F2"/>
<g id="Group_5">
<path id="Vector_9" d="M488.401 763.501H478.143V875.016H488.401V763.501Z" fill="#355389"/>
<path id="Vector_10" d="M483.269 547.168L449.785 812.556H516.753L483.269 547.168Z" fill="#3C8F7C"/>
<path id="Vector_11" d="M461.932 716.305L509.678 756.457L507.838 741.905L463.413 704.545L461.932 716.305Z" fill="#50BFA5"/>
<path id="Vector_12" d="M469.27 658.13L498.509 667.937L497.13 657.042L470.535 648.123L469.27 658.13Z" fill="#50BFA5"/>
</g>
<g id="Group_6">
<path id="Vector_13" d="M587.359 792.294H578.163V876.115H587.359V792.294Z" fill="#355389"/>
<path id="Vector_14" d="M584.038 642.849L560.003 812.044H608.073L584.038 642.849Z" fill="#3C8F7C"/>
<path id="Vector_15" d="M561.526 801.308L604.656 787.972L604.003 783.386L562.239 796.298L561.526 801.308Z" fill="#50BFA5"/>
<path id="Vector_16" d="M569.122 747.855L597.701 739.017L597.048 734.431L569.835 742.845L569.122 747.855Z" fill="#50BFA5"/>
</g>
<path id="Vector_17" d="M1830.53 868.542L1837.96 853.561C1843.26 842.348 1838.82 829.301 1828.06 824.415C1800.94 812.103 1768.15 825.026 1754.81 853.278L1745.06 873.934C1740.8 882.983 1732.19 888.615 1723.14 889.298C1714.93 889.915 1707.56 895.26 1703.93 902.944L1698.79 913.834C1693.23 925.622 1693.34 939.04 1698.69 950.423C1701.81 957.079 1701.99 965.211 1698.48 972.637L1691.2 988.053C1683.16 1005.1 1689.9 1024.94 1706.26 1032.36L1715.6 1036.6C1731.96 1044.03 1751.74 1036.23 1759.79 1019.19C1767.26 996.438 1779.64 986.966 1790.5 983.273C1806.47 977.84 1819.86 966.087 1827.19 950.552L1828.22 948.371C1835.96 931.973 1835.95 913.328 1828.74 897.376C1825.56 890.338 1824.74 880.831 1830.53 868.542Z" fill="#96D9C9"/>
<path id="Vector_18" d="M64.8633 868.384L57.4351 853.402C52.1413 842.189 56.5778 829.142 67.3394 824.256C94.4561 811.944 127.244 824.868 140.584 853.12L150.332 873.775C154.601 882.824 163.21 888.457 172.257 889.139C180.471 889.756 187.839 895.101 191.466 902.786L196.604 913.675C202.168 925.464 202.054 938.881 196.712 950.265C193.588 956.92 193.409 965.052 196.916 972.478L204.194 987.895C212.24 1004.94 205.495 1024.78 189.14 1032.2L179.805 1036.44C163.444 1043.87 143.66 1036.07 135.614 1019.03C128.138 996.279 115.763 986.807 104.906 983.115C88.9344 977.682 75.5409 965.928 68.2087 950.394L67.1775 948.213C59.4376 931.814 59.4555 913.169 66.6619 897.218C69.8334 890.174 70.6608 880.666 64.8633 868.384Z" fill="#96D9C9"/>
<g id="Group_7">
<path id="Vector_19" d="M1397.67 1007.08H1407.93V895.563H1397.67V1007.08Z" fill="#355389"/>
<path id="Vector_20" d="M1402.8 679.233L1436.28 944.62H1369.31L1402.8 679.233Z" fill="#3C8F7C"/>
<path id="Vector_21" d="M1424.13 848.369L1376.39 888.521L1378.23 873.969L1422.65 836.609L1424.13 848.369Z" fill="#50BFA5"/>
<path id="Vector_22" d="M1416.8 790.195L1387.56 800.002L1388.94 789.107L1415.53 780.188L1416.8 790.195Z" fill="#50BFA5"/>
</g>
<g id="Group_8">
<path id="Vector_23" d="M1324.26 1008.18H1333.46V924.359H1324.26V1008.18Z" fill="#355389"/>
<path id="Vector_24" d="M1327.58 774.913L1351.62 944.108H1303.55L1327.58 774.913Z" fill="#3C8F7C"/>
<path id="Vector_25" d="M1350.09 933.372L1306.97 920.037L1307.62 915.45L1349.38 928.362L1350.09 933.372Z" fill="#50BFA5"/>
<path id="Vector_26" d="M1342.5 879.919L1313.92 871.082L1314.57 866.496L1341.79 874.91L1342.5 879.919Z" fill="#50BFA5"/>
</g>
<path id="Vector_27" d="M45.75 1039.54C45.75 1039.54 252.45 846.117 518.965 834.24C608.463 830.248 974.925 910.247 1283.52 973.09C1296.49 975.73 1619.91 1040.09 1663.95 1042L45.75 1039.54Z" fill="#96D9C9"/>
<path id="Vector_28" d="M1489.87 1040.88C1489.87 1040.88 1543.87 970.544 1577.85 959.754C1611.83 948.965 1579.8 991.817 1579.8 991.817C1579.8 991.817 1640.08 927.175 1662.2 933.002C1682.48 938.346 1662.2 978.411 1662.2 978.411C1662.2 978.411 1685.04 956.221 1712.74 956.221C1740.43 956.221 1691.33 1039.3 1691.33 1039.3L1489.87 1040.88Z" fill="#50BFA5"/>
<path id="Vector_29" d="M1663.95 1040.49C1663.95 1040.49 1700.86 943.685 1746.57 954.88C1783.61 963.952 1757.28 1012.66 1759.54 1010.44C1761.8 1008.23 1781.66 975.165 1813.81 975.165C1845.96 975.165 1803.94 1019.79 1803.94 1019.79C1803.94 1019.79 1872.43 998.807 1877.8 1020.84C1882.25 1039.12 1857.36 1040.49 1857.36 1040.49H1663.95V1040.49Z" fill="#3C8F7C"/>
<path id="Vector_30" d="M293.41 1040.88C293.41 1040.88 239.41 970.544 205.435 959.754C171.46 948.965 203.481 991.817 203.481 991.817C203.481 991.817 144.817 913.316 122.694 919.149C102.418 924.488 110.673 964.135 110.673 964.135C110.673 964.135 98.2391 956.227 70.5468 956.227C42.8485 956.227 91.956 1039.31 91.956 1039.31L293.41 1040.88Z" fill="#50BFA5"/>
<path id="Vector_31" d="M162.916 1040.49C162.916 1040.49 136.429 971.014 103.623 979.052C77.0396 985.561 95.9368 1020.52 94.3181 1018.93C92.6994 1017.34 78.4365 993.61 55.3666 993.61C32.2967 993.61 62.4471 1025.63 62.4471 1025.63C62.4471 1025.63 13.2916 1010.58 9.44264 1026.38C6.24715 1039.5 24.1131 1040.48 24.1131 1040.48H162.916V1040.49Z" fill="#3C8F7C"/>
<g id="Group_9">
<path id="Vector_32" d="M334.586 1019.09C334.826 1017.68 334.952 1016.25 334.952 1014.78C334.952 998.478 319.37 985.261 300.149 985.261C280.928 985.261 265.346 998.478 265.346 1014.78C265.346 1016.25 265.472 1017.68 265.712 1019.09H334.586Z" fill="#3C8F7C"/>
<path id="Vector_33" d="M373.969 1011.83C374.209 1009.85 374.334 1007.82 374.334 1005.76C374.334 982.768 358.753 964.129 339.532 964.129C320.311 964.129 304.729 982.768 304.729 1005.76C304.729 1007.83 304.855 1009.85 305.095 1011.83H373.969Z" fill="#50BFA5"/>
<path id="Vector_34" d="M361.229 1037.34C360.989 1035.94 360.863 1034.5 360.863 1033.04C360.863 1016.73 376.445 1003.52 395.666 1003.52C414.887 1003.52 430.468 1016.73 430.468 1033.04C430.468 1034.5 430.343 1035.94 430.103 1037.34H361.229Z" fill="#50BFA5"/>
<path id="Vector_35" d="M305.533 1037.34C305.227 1035.36 305.065 1033.33 305.065 1031.28C305.065 1008.28 324.819 989.641 349.184 989.641C373.549 989.641 393.304 1008.28 393.304 1031.28C393.304 1033.34 393.142 1035.36 392.836 1037.34H305.533Z" fill="#3C8F7C"/>
<path id="Vector_36" d="M339.406 989.641C327.229 989.641 316.348 995.556 309.172 1004.83C305.514 1003.98 301.63 1003.52 297.607 1003.52C275.988 1003.52 258.457 1016.73 258.457 1033.04C258.457 1034.5 258.601 1035.94 258.871 1037.34H378.142C378.411 1035.36 378.555 1033.33 378.555 1031.28C378.555 1008.28 361.025 989.641 339.406 989.641Z" fill="#50BFA5"/>
</g>
<g id="Group_10">
<g id="Group_11">
<g id="Group_12">
<path id="Vector_37" d="M188.54 949.647C178.294 933.948 176.382 914.992 176.586 901.857C176.801 887.592 179.487 876.915 179.511 876.809L178.768 876.55C178.738 876.656 176.034 887.416 175.812 901.768C175.608 915.033 177.539 934.183 187.911 950.076L188.54 949.647Z" fill="#3C8F7C"/>
</g>
<g id="Group_13">
<path id="Vector_38" d="M182.035 874.204C181.783 877.432 180.327 880.137 178.228 881.801C176.436 879.555 175.428 876.474 175.68 873.246C175.932 870.018 177.389 867.313 179.487 865.649C181.28 867.895 182.287 870.976 182.035 874.204Z" fill="#3C8F7C"/>
</g>
<g id="Group_14">
<path id="Vector_39" d="M175.111 881.654C176.849 884.447 177.389 887.628 176.831 890.385C174.169 889.762 171.591 887.933 169.859 885.141C168.12 882.348 167.58 879.167 168.138 876.409C170.794 877.032 173.372 878.861 175.111 881.654Z" fill="#3C8F7C"/>
</g>
<g id="Group_15">
<path id="Vector_40" d="M171.19 890.421C173.888 892.143 175.716 894.801 176.424 897.606C173.858 898.323 170.854 897.894 168.15 896.171C165.452 894.448 163.624 891.791 162.916 888.986C165.482 888.269 168.492 888.698 171.19 890.421Z" fill="#3C8F7C"/>
</g>
<g id="Group_16">
<path id="Vector_41" d="M172.395 902.627C174.529 903.997 175.854 906.337 176.22 908.924C173.995 909.853 171.489 909.741 169.349 908.371C167.215 907.001 165.89 904.661 165.524 902.074C167.754 901.145 170.26 901.257 172.395 902.627Z" fill="#3C8F7C"/>
</g>
<g id="Group_17">
<path id="Vector_42" d="M181.226 888.163C183.63 886.904 186.316 886.834 188.618 887.745C188.012 890.18 186.394 892.367 183.99 893.625C181.585 894.883 178.899 894.954 176.597 894.043C177.209 891.608 178.828 889.421 181.226 888.163Z" fill="#3C8F7C"/>
</g>
<g id="Group_18">
<path id="Vector_43" d="M180.962 896.594C183.366 895.336 186.052 895.265 188.354 896.177C187.749 898.611 186.13 900.798 183.726 902.057C181.322 903.315 178.636 903.386 176.334 902.474C176.945 900.04 178.558 897.853 180.962 896.594Z" fill="#3C8F7C"/>
</g>
<g id="Group_19">
<path id="Vector_44" d="M173.942 916.039C175.213 916.333 176.268 917.173 176.903 918.267C175.998 919.008 174.781 919.326 173.51 919.037C172.239 918.743 171.184 917.903 170.548 916.809C171.454 916.068 172.677 915.75 173.942 916.039Z" fill="#3C8F7C"/>
</g>
</g>
<g id="Group_20">
<g id="Group_21">
<path id="Vector_45" d="M184.313 960.742C160.866 955.245 142.988 938.234 132.112 924.935C120.307 910.494 113.988 897.188 113.922 897.053L112.969 897.535C113.029 897.67 119.402 911.076 131.279 925.611C142.256 939.046 160.32 956.226 184.061 961.789L184.313 960.742Z" fill="#3C8F7C"/>
</g>
<g id="Group_22">
<path id="Vector_46" d="M114.246 891.949C116.717 895.418 117.544 899.564 116.854 903.297C113.173 902.833 109.576 900.763 107.106 897.294C104.636 893.825 103.809 889.68 104.498 885.946C108.179 886.411 111.776 888.486 114.246 891.949Z" fill="#3C8F7C"/>
</g>
<g id="Group_23">
<path id="Vector_47" d="M113.617 906.243C117.706 907.307 120.919 909.941 122.694 913.246C119.516 915.263 115.409 915.998 111.321 914.933C107.232 913.869 104.018 911.235 102.244 907.93C105.421 905.914 109.534 905.185 113.617 906.243Z" fill="#3C8F7C"/>
</g>
<g id="Group_24">
<path id="Vector_48" d="M117.094 918.879C121.237 917.92 125.301 918.761 128.365 920.854C126.411 924.112 123.047 926.663 118.904 927.622C114.762 928.58 110.697 927.739 107.633 925.646C109.588 922.389 112.951 919.831 117.094 918.879Z" fill="#3C8F7C"/>
</g>
<g id="Group_25">
<path id="Vector_49" d="M126.435 930.362C130.578 929.403 134.642 930.238 137.706 932.337C135.752 935.595 132.388 938.147 128.245 939.105C124.103 940.063 120.038 939.229 116.974 937.129C118.929 933.872 122.292 931.32 126.435 930.362Z" fill="#3C8F7C"/>
</g>
<g id="Group_26">
<path id="Vector_50" d="M123.641 911.27C123.431 907.36 124.744 903.68 126.98 901.034C129.474 903.115 131.153 906.437 131.363 910.347C131.573 914.257 130.26 917.938 128.024 920.584C125.536 918.502 123.851 915.18 123.641 911.27Z" fill="#3C8F7C"/>
</g>
<g id="Group_27">
<path id="Vector_51" d="M133.383 923.153C133.114 919.249 134.367 915.545 136.567 912.858C139.091 914.898 140.824 918.185 141.093 922.089C141.363 925.993 140.11 929.697 137.91 932.384C135.386 930.344 133.653 927.051 133.383 923.153Z" fill="#3C8F7C"/>
</g>
<g id="Group_28">
<path id="Vector_52" d="M141.435 941.692C142.946 940.722 144.709 940.516 146.261 940.98C145.986 942.615 145.038 944.144 143.522 945.114C142.011 946.084 140.248 946.29 138.695 945.825C138.977 944.191 139.924 942.662 141.435 941.692Z" fill="#3C8F7C"/>
</g>
</g>
<g id="Group_29">
<g id="Group_30">
<g id="Group_31">
<path id="Vector_53" d="M246.377 993.216L247.39 993.151C245.927 966.851 255.772 942.103 264.291 925.975C273.53 908.471 283.248 897.053 283.344 896.941L282.601 896.189C282.505 896.3 272.72 907.795 263.422 925.399C254.83 941.668 244.902 966.634 246.377 993.216Z" fill="#3C8F7C"/>
</g>
<g id="Group_32">
<path id="Vector_54" d="M287.744 895.436C285.43 899.258 282.109 901.633 278.734 902.286C278.164 898.305 278.991 893.825 281.306 890.003C283.62 886.181 286.941 883.806 290.316 883.153C290.886 887.134 290.059 891.614 287.744 895.436Z" fill="#3C8F7C"/>
</g>
<g id="Group_33">
<path id="Vector_55" d="M275.365 900.016C275.532 904.632 274.123 908.93 271.761 911.97C269.201 909.418 267.499 905.431 267.331 900.816C267.163 896.194 268.572 891.902 270.934 888.862C273.494 891.414 275.203 895.401 275.365 900.016Z" fill="#3C8F7C"/>
</g>
<g id="Group_34">
<path id="Vector_56" d="M265.484 908.236C267.39 912.175 267.744 916.685 266.755 920.625C263.457 919.796 260.394 917.25 258.487 913.31C256.581 909.371 256.227 904.861 257.216 900.922C260.514 901.751 263.577 904.297 265.484 908.236Z" fill="#3C8F7C"/>
</g>
<g id="Group_35">
<path id="Vector_57" d="M258.697 928.439C259.609 930.026 259.891 931.902 259.591 933.584C258.188 933.348 256.827 932.384 255.916 930.803C255.004 929.215 254.722 927.339 255.022 925.658C256.425 925.893 257.786 926.851 258.697 928.439Z" fill="#3C8F7C"/>
</g>
<g id="Group_36">
<path id="Vector_58" d="M255.772 935.688C256.683 937.276 256.965 939.152 256.665 940.833C255.262 940.598 253.901 939.634 252.99 938.052C252.079 936.465 251.797 934.589 252.097 932.907C253.499 933.142 254.854 934.107 255.772 935.688Z" fill="#3C8F7C"/>
</g>
<g id="Group_37">
<path id="Vector_59" d="M278.044 912.164C281.503 912.211 284.525 913.928 286.503 916.591C284.291 919.196 281.12 920.819 277.666 920.772C274.207 920.719 271.185 919.008 269.207 916.344C271.413 913.74 274.585 912.117 278.044 912.164Z" fill="#3C8F7C"/>
</g>
<g id="Group_38">
<path id="Vector_60" d="M272.427 922.418C275.886 922.465 278.908 924.182 280.886 926.846C278.674 929.45 275.502 931.073 272.049 931.026C268.59 930.979 265.568 929.262 263.59 926.599C265.796 923.988 268.967 922.365 272.427 922.418Z" fill="#3C8F7C"/>
</g>
<g id="Group_39">
<path id="Vector_61" d="M263.14 936.388C265.388 936.424 267.36 937.535 268.649 939.269C267.211 940.962 265.148 942.021 262.894 941.991C260.646 941.956 258.673 940.845 257.384 939.11C258.823 937.411 260.886 936.353 263.14 936.388Z" fill="#3C8F7C"/>
</g>
</g>
</g>
<path id="Vector_62" d="M158.947 1036.34C158.947 1031.96 185.902 1037.13 188.15 1031.16C190.393 1025.2 165.062 1024.85 165.062 1016.79C165.062 1008.72 177.97 1014.38 185.542 1014.38C193.114 1014.38 170.596 1010.92 170.596 1008.07C170.596 1005.21 178.498 1006.71 178.498 1003.68C178.498 1000.64 137.016 998.355 141.873 990.935C146.729 983.514 169.031 993.098 175.152 989.259C181.274 985.419 142.436 981.227 141.477 975.518C140.518 969.809 170.092 980.41 174.283 976.306C178.474 972.196 127.514 957.438 129.648 946.584C131.782 935.736 168.27 960.478 177.395 957.814C186.52 955.151 131.393 917.062 144.205 902.221C157.017 887.381 181.472 951.34 189.817 949.053C198.162 946.766 179.367 908.642 187.892 902.01C196.418 895.377 220.891 955.691 222.431 968.08C223.978 980.463 227.084 941.439 240.477 936.87C253.871 932.308 240.867 961.048 243.193 969.803C245.525 978.558 256.389 947.342 271.047 949.624C285.7 951.905 244.554 980.463 248.631 988.835C252.708 997.214 284.483 960.877 294.435 970.638C304.393 980.404 256.161 1007.5 258.799 1014.92C261.437 1022.34 290.37 1009.63 298.704 1017.79C307.037 1025.97 267.618 1031.15 262.396 1031.15C257.168 1031.15 237.198 1037.6 256.701 1036.33C276.197 1035.07 158.947 1040.72 158.947 1036.34Z" fill="#3C8F7C"/>
<g id="Group_40">
<path id="Vector_63" d="M235.789 1041.4C235.789 1041.4 268.254 1043.11 277.702 1037.27C287.151 1031.43 279.693 1026.89 279.693 1026.89C279.693 1026.89 309.711 1026.25 309.639 1019.28C309.561 1012.31 302.289 1012.71 302.289 1012.71C302.289 1012.71 317.439 1002.61 314.615 996.314C310.275 986.642 285.592 1003.48 285.592 1003.48C285.592 1003.48 293.68 994.057 287.145 991.857C269.201 985.807 235.789 1041.4 235.789 1041.4Z" fill="#50BFA5"/>
<path id="Vector_64" d="M314.615 996.308C317.439 1002.61 302.289 1012.7 302.289 1012.7C302.289 1012.7 313.224 1012.56 311.449 1019.35C309.681 1026.1 282.186 1028.38 282.186 1028.38C282.186 1028.38 291.785 1030.22 282.336 1036.06C272.882 1041.9 235.795 1041.4 235.795 1041.4L314.615 996.308Z" fill="#96D9C9"/>
</g>
</g>
<g id="Group_41">
<g id="Group_42">
<g id="Group_43">
<path id="Vector_65" d="M1590.1 942.168C1601.22 925.135 1603.29 904.567 1603.08 890.315C1602.84 874.839 1599.93 863.256 1599.9 863.139L1600.7 862.862C1600.73 862.98 1603.67 874.651 1603.91 890.227C1604.13 904.62 1602.03 925.399 1590.78 942.639L1590.1 942.168Z" fill="#3C8F7C"/>
</g>
<g id="Group_44">
<path id="Vector_66" d="M1597.16 860.311C1597.44 863.815 1599.01 866.749 1601.29 868.554C1603.24 866.114 1604.32 862.774 1604.05 859.276C1603.78 855.771 1602.2 852.838 1599.92 851.032C1597.98 853.467 1596.88 856.806 1597.16 860.311Z" fill="#3C8F7C"/>
</g>
<g id="Group_45">
<path id="Vector_67" d="M1604.67 868.389C1602.79 871.417 1602.2 874.869 1602.81 877.862C1605.7 877.185 1608.49 875.204 1610.37 872.176C1612.26 869.148 1612.84 865.696 1612.24 862.704C1609.35 863.38 1606.56 865.361 1604.67 868.389Z" fill="#3C8F7C"/>
</g>
<g id="Group_46">
<path id="Vector_68" d="M1608.93 877.903C1606 879.773 1604.02 882.654 1603.25 885.693C1606.03 886.469 1609.29 886.005 1612.23 884.135C1615.15 882.266 1617.14 879.384 1617.9 876.345C1615.12 875.569 1611.85 876.033 1608.93 877.903Z" fill="#3C8F7C"/>
</g>
<g id="Group_47">
<path id="Vector_69" d="M1607.62 891.15C1605.3 892.637 1603.86 895.171 1603.47 897.982C1605.88 898.987 1608.6 898.87 1610.92 897.382C1613.24 895.9 1614.67 893.36 1615.07 890.55C1612.65 889.545 1609.94 889.668 1607.62 891.15Z" fill="#3C8F7C"/>
</g>
<g id="Group_48">
<path id="Vector_70" d="M1598.04 875.457C1595.43 874.093 1592.51 874.016 1590.01 874.998C1590.67 877.638 1592.43 880.014 1595.03 881.378C1597.63 882.742 1600.55 882.818 1603.05 881.836C1602.39 879.196 1600.64 876.821 1598.04 875.457Z" fill="#3C8F7C"/>
</g>
<g id="Group_49">
<path id="Vector_71" d="M1598.32 884.606C1595.72 883.241 1592.8 883.165 1590.3 884.147C1590.96 886.787 1592.72 889.163 1595.32 890.527C1597.92 891.891 1600.84 891.967 1603.34 890.985C1602.69 888.345 1600.93 885.97 1598.32 884.606Z" fill="#3C8F7C"/>
</g>
<g id="Group_50">
<path id="Vector_72" d="M1605.94 905.702C1604.56 906.02 1603.41 906.931 1602.72 908.119C1603.7 908.924 1605.03 909.271 1606.4 908.954C1607.78 908.636 1608.93 907.725 1609.62 906.537C1608.64 905.732 1607.32 905.385 1605.94 905.702Z" fill="#3C8F7C"/>
</g>
</g>
<g id="Group_51">
<g id="Group_52">
<path id="Vector_73" d="M1594.68 954.198C1620.12 948.23 1639.52 929.78 1651.32 915.351C1664.13 899.687 1670.99 885.246 1671.06 885.099L1672.1 885.617C1672.03 885.764 1665.12 900.31 1652.23 916.08C1640.32 930.656 1620.72 949.294 1594.97 955.333L1594.68 954.198Z" fill="#3C8F7C"/>
</g>
<g id="Group_53">
<path id="Vector_74" d="M1670.71 879.567C1668.03 883.33 1667.13 887.822 1667.88 891.879C1671.87 891.373 1675.78 889.127 1678.46 885.364C1681.14 881.601 1682.04 877.103 1681.28 873.052C1677.29 873.558 1673.39 875.804 1670.71 879.567Z" fill="#3C8F7C"/>
</g>
<g id="Group_54">
<path id="Vector_75" d="M1671.39 895.078C1666.95 896.23 1663.46 899.093 1661.54 902.674C1664.99 904.861 1669.45 905.661 1673.88 904.503C1678.32 903.35 1681.81 900.487 1683.73 896.906C1680.28 894.719 1675.82 893.925 1671.39 895.078Z" fill="#3C8F7C"/>
</g>
<g id="Group_55">
<path id="Vector_76" d="M1667.62 908.777C1663.12 907.737 1658.71 908.648 1655.39 910.923C1657.51 914.457 1661.15 917.227 1665.65 918.267C1670.15 919.308 1674.55 918.397 1677.88 916.121C1675.76 912.587 1672.11 909.818 1667.62 908.777Z" fill="#3C8F7C"/>
</g>
<g id="Group_56">
<path id="Vector_77" d="M1657.48 921.242C1652.99 920.202 1648.58 921.113 1645.25 923.388C1647.38 926.922 1651.02 929.691 1655.52 930.732C1660.01 931.773 1664.42 930.861 1667.75 928.586C1665.63 925.052 1661.97 922.283 1657.48 921.242Z" fill="#3C8F7C"/>
</g>
<g id="Group_57">
<path id="Vector_78" d="M1660.51 900.528C1660.74 896.289 1659.32 892.296 1656.89 889.421C1654.19 891.679 1652.36 895.289 1652.14 899.528C1651.91 903.768 1653.33 907.76 1655.76 910.635C1658.46 908.371 1660.28 904.767 1660.51 900.528Z" fill="#3C8F7C"/>
</g>
<g id="Group_58">
<path id="Vector_79" d="M1649.94 913.416C1650.24 909.183 1648.87 905.161 1646.49 902.245C1643.75 904.456 1641.87 908.025 1641.58 912.264C1641.28 916.497 1642.65 920.519 1645.03 923.435C1647.77 921.225 1649.65 917.656 1649.94 913.416Z" fill="#3C8F7C"/>
</g>
<g id="Group_59">
<path id="Vector_80" d="M1641.21 933.537C1639.56 932.484 1637.66 932.261 1635.97 932.761C1636.27 934.53 1637.3 936.194 1638.94 937.241C1640.58 938.293 1642.49 938.517 1644.18 938.017C1643.88 936.247 1642.85 934.589 1641.21 933.537Z" fill="#3C8F7C"/>
</g>
</g>
<g id="Group_60">
<g id="Group_61">
<g id="Group_62">
<path id="Vector_81" d="M1527.35 989.441L1526.25 989.37C1527.84 960.836 1517.16 933.983 1507.92 916.485C1497.9 897.494 1487.36 885.111 1487.25 884.988L1488.06 884.176C1488.16 884.3 1498.78 896.771 1508.87 915.868C1518.18 933.507 1528.95 960.601 1527.35 989.441Z" fill="#3C8F7C"/>
</g>
<g id="Group_63">
<path id="Vector_82" d="M1482.47 883.347C1484.98 887.498 1488.59 890.068 1492.25 890.779C1492.87 886.464 1491.97 881.601 1489.46 877.45C1486.95 873.299 1483.35 870.723 1479.68 870.018C1479.06 874.339 1479.96 879.196 1482.47 883.347Z" fill="#3C8F7C"/>
</g>
<g id="Group_64">
<path id="Vector_83" d="M1495.9 888.316C1495.72 893.325 1497.25 897.988 1499.81 901.286C1502.58 898.517 1504.43 894.195 1504.61 889.186C1504.79 884.176 1503.26 879.514 1500.7 876.215C1497.93 878.985 1496.08 883.306 1495.9 888.316Z" fill="#3C8F7C"/>
</g>
<g id="Group_65">
<path id="Vector_84" d="M1506.62 897.235C1504.55 901.51 1504.17 906.402 1505.24 910.676C1508.81 909.777 1512.14 907.013 1514.21 902.739C1516.28 898.464 1516.66 893.572 1515.59 889.298C1512.01 890.197 1508.69 892.961 1506.62 897.235Z" fill="#3C8F7C"/>
</g>
<g id="Group_66">
<path id="Vector_85" d="M1513.98 919.155C1512.99 920.872 1512.69 922.912 1513.02 924.741C1514.54 924.482 1516.01 923.441 1517 921.718C1517.99 920.002 1518.3 917.961 1517.97 916.133C1516.44 916.391 1514.97 917.432 1513.98 919.155Z" fill="#3C8F7C"/>
</g>
<g id="Group_67">
<path id="Vector_86" d="M1517.16 927.022C1516.17 928.739 1515.86 930.779 1516.19 932.608C1517.72 932.349 1519.19 931.308 1520.18 929.585C1521.17 927.863 1521.48 925.828 1521.15 924C1519.62 924.258 1518.15 925.305 1517.16 927.022Z" fill="#3C8F7C"/>
</g>
<g id="Group_68">
<path id="Vector_87" d="M1493 901.498C1489.24 901.551 1485.96 903.409 1483.82 906.302C1486.22 909.13 1489.66 910.888 1493.41 910.835C1497.16 910.782 1500.44 908.924 1502.59 906.031C1500.19 903.203 1496.74 901.445 1493 901.498Z" fill="#3C8F7C"/>
</g>
<g id="Group_69">
<path id="Vector_88" d="M1499.08 912.622C1495.33 912.675 1492.05 914.533 1489.9 917.426C1492.3 920.254 1495.74 922.012 1499.5 921.959C1503.25 921.907 1506.53 920.049 1508.68 917.156C1506.28 914.328 1502.84 912.57 1499.08 912.622Z" fill="#3C8F7C"/>
</g>
<g id="Group_70">
<path id="Vector_89" d="M1509.17 927.78C1506.73 927.816 1504.59 929.027 1503.19 930.908C1504.75 932.749 1506.99 933.895 1509.43 933.86C1511.87 933.825 1514.01 932.613 1515.41 930.732C1513.85 928.892 1511.61 927.745 1509.17 927.78Z" fill="#3C8F7C"/>
</g>
</g>
</g>
<path id="Vector_90" d="M1622.21 1036.23C1622.21 1031.48 1592.96 1037.08 1590.53 1030.61C1588.1 1024.14 1615.58 1023.77 1615.58 1015.01C1615.58 1006.26 1601.57 1012.4 1593.36 1012.4C1585.14 1012.4 1609.58 1008.64 1609.58 1005.55C1609.58 1002.46 1601.01 1004.08 1601.01 1000.79C1601.01 997.496 1646.01 995.015 1640.75 986.966C1635.49 978.916 1611.28 989.312 1604.64 985.143C1598 980.974 1640.13 976.435 1641.18 970.238C1642.22 964.041 1610.13 975.547 1605.58 971.091C1601.04 966.634 1656.33 950.617 1654.01 938.846C1651.7 927.075 1612.11 953.922 1602.21 951.029C1592.31 948.136 1652.12 906.813 1638.22 890.715C1624.31 874.616 1597.78 944.008 1588.73 941.527C1579.68 939.046 1600.07 897.676 1590.82 890.485C1581.57 883.289 1555.02 948.73 1553.35 962.171C1551.67 975.606 1548.3 933.266 1533.77 928.31C1519.24 923.359 1533.35 954.545 1530.82 964.041C1528.3 973.542 1516.51 939.669 1500.61 942.151C1484.71 944.632 1529.35 975.606 1524.93 984.696C1520.5 993.786 1486.03 954.363 1475.23 964.952C1464.42 975.547 1516.75 1004.95 1513.89 1013C1511.03 1021.04 1479.63 1007.25 1470.6 1016.12C1461.56 1024.98 1504.32 1030.62 1509.99 1030.62C1515.67 1030.62 1537.33 1037.61 1516.17 1036.23C1494.99 1034.85 1622.21 1040.97 1622.21 1036.23Z" fill="#3C8F7C"/>
<g id="Group_71">
<path id="Vector_91" d="M1538.84 1041.71C1538.84 1041.71 1503.62 1043.56 1493.36 1037.23C1483.11 1030.9 1491.2 1025.97 1491.2 1025.97C1491.2 1025.97 1458.63 1025.28 1458.72 1017.71C1458.8 1010.14 1466.69 1010.58 1466.69 1010.58C1466.69 1010.58 1450.25 999.619 1453.31 992.793C1458.03 982.297 1484.8 1000.57 1484.8 1000.57C1484.8 1000.57 1476.02 990.347 1483.12 987.959C1502.58 981.398 1538.84 1041.71 1538.84 1041.71Z" fill="#50BFA5"/>
<path id="Vector_92" d="M1453.31 992.793C1450.25 999.625 1466.69 1010.58 1466.69 1010.58C1466.69 1010.58 1454.83 1010.43 1456.75 1017.79C1458.67 1025.12 1488.5 1027.59 1488.5 1027.59C1488.5 1027.59 1478.09 1029.59 1488.34 1035.93C1498.59 1042.26 1538.84 1041.72 1538.84 1041.72L1453.31 992.793Z" fill="#3C8F7C"/>
</g>
</g>
<g id="Group_72">
<path id="Vector_93" d="M102.891 763.618C102.945 761.895 105.367 760.561 106.65 762.084C107.933 763.606 107.879 762.577 109.126 765.87C112.706 775.319 117.969 784.462 124.097 792.452C135.835 807.757 147.454 815.483 160.65 823.133C155.212 811.121 151.573 798.297 151.105 785.361C150.938 780.646 151.028 775.76 153.084 771.432C153.659 770.227 155.866 770.474 156.088 771.82C157.197 778.494 155.566 783.527 157.766 795.475C163.024 823.98 183.828 854.219 203.9 875.392C200.051 839.549 198.187 798.814 205.069 762.66C206.196 756.727 207.995 751.089 209.662 745.297C210.051 743.933 212.03 744.521 211.784 745.873C211.436 747.802 208.157 772.679 207.959 774.396C204.775 801.931 205.411 832.429 207.887 860.246C223.457 839.567 233.877 815.389 238.751 790.136C240.19 782.669 240.573 774.966 242.594 767.64C242.87 766.629 244.572 766.523 244.782 767.64C246.856 778.617 242.702 798.032 239.674 808.581C233.541 829.959 223.727 849.121 210.309 866.243C209.787 866.907 231.856 1034.2 231.263 1036.32C230.261 1039.9 223.918 1042.4 222.929 1036.06C222.527 1033.48 210.405 931.761 204.931 884.641C202.863 883.524 201.532 881.536 196.214 875.674C183.906 862.104 171.735 845.223 163.6 829.301C158.72 829.03 123.467 812.208 105.979 773.902C105.475 772.796 103.203 767.611 102.879 766.458C102.622 765.453 102.861 764.6 102.891 763.618Z" fill="#184655"/>
<path id="Vector_94" d="M216.106 709.378C215.705 704.227 215.495 698.965 215.495 693.602C215.495 633.847 241.353 585.41 273.254 585.41C305.155 585.41 331.012 633.847 331.012 693.602C331.012 698.959 330.802 704.227 330.401 709.378H216.106Z" fill="#3C8F7C"/>
<path id="Vector_95" d="M150.74 682.789C150.338 675.528 150.128 668.102 150.128 660.546C150.128 576.278 175.986 507.968 207.887 507.968C239.788 507.968 265.646 576.278 265.646 660.546C265.646 668.102 265.436 675.528 265.034 682.789H150.74Z" fill="#50BFA5"/>
<path id="Vector_96" d="M171.885 776.289C172.287 771.139 172.497 765.876 172.497 760.514C172.497 700.758 146.639 652.321 114.738 652.321C82.8369 652.321 56.9791 700.758 56.9791 760.514C56.9791 765.87 57.189 771.139 57.5906 776.289H171.885Z" fill="#50BFA5"/>
<path id="Vector_97" d="M264.326 776.289C264.836 769.028 265.1 761.602 265.1 754.046C265.1 669.778 232.318 601.468 191.879 601.468C151.441 601.468 118.659 669.778 118.659 754.046C118.659 761.602 118.922 769.028 119.432 776.289H264.326Z" fill="#3C8F7C"/>
<path id="Vector_98" d="M208.109 601.462C228.319 601.462 246.377 623.134 258.289 657.119C264.357 653.997 270.808 652.315 277.486 652.315C313.368 652.315 342.457 700.752 342.457 760.508C342.457 765.864 342.223 771.132 341.768 776.283H143.821C143.372 769.022 143.132 761.596 143.132 754.04C143.138 669.778 172.227 601.462 208.109 601.462Z" fill="#50BFA5"/>
</g>
<g id="Group_73">
<g id="Group_74">
<path id="Vector_99" d="M1760.06 915.55C1768.33 894.454 1776.43 873.351 1782.31 851.402C1800.39 783.868 1796.03 734.643 1795.35 710.971C1795.26 707.843 1800.38 706.984 1800.83 710.212C1802.36 721.319 1802.7 732.608 1802.78 743.815C1802.91 762.754 1801.73 781.704 1799.26 800.631C1812.52 804.018 1825.08 798.943 1835.34 789.83C1853.04 774.113 1859.36 753.176 1862.14 729.974C1862.42 727.605 1862.51 725.364 1864.48 723.989C1864.92 722.771 1866.73 722.401 1867.18 724.212C1869.98 727.04 1868.62 732.714 1868.19 736.365C1862.35 785.779 1831.72 809.727 1807.06 809.521C1804.36 809.497 1801.07 809.368 1798.13 808.563C1796.35 820.381 1794.06 832.123 1791.27 843.735C1785.94 865.861 1778.47 887.216 1770.24 908.371C1742.13 980.709 1733.15 1017.67 1725.17 1038.61C1723.96 1042.82 1717.61 1041.05 1718.72 1036.79C1719.13 1035.28 1741.07 964.011 1760.06 915.55Z" fill="#29446D"/>
<path id="Vector_100" d="M1647.4 725.365C1647.66 723.807 1648.59 722.778 1648.95 721.32C1649.42 719.397 1652.61 719.203 1652.95 721.32C1653.14 722.531 1653.82 723.272 1654.09 724.512C1654.95 728.511 1652.87 751.018 1658.29 785.467C1659.73 794.622 1661.32 803.73 1664.42 812.467C1669.45 826.59 1678.61 841.819 1689.99 851.444C1690.35 831.265 1691.59 811.115 1694.05 791.071C1695.52 779.076 1697.39 767.134 1699.66 755.269C1700.76 749.489 1701.95 743.727 1703.23 737.989C1704.57 731.962 1705.84 726.182 1708.78 720.726C1709.69 719.05 1712.25 719.832 1712.26 721.684C1712.27 727.035 1711.18 731.962 1710.04 737.154C1708.91 742.328 1707.85 747.52 1706.86 752.723C1699.55 791.294 1696.8 825.549 1696.83 864.173C1708.89 849.292 1719.43 831.47 1727.25 813.961C1736.65 792.917 1742.97 770.274 1745.6 747.296C1746.34 740.87 1746.79 734.402 1746.93 727.934C1747 724.583 1747.07 721.237 1747.14 717.886C1747.17 716.163 1747.85 710.966 1750.81 712.488C1753.53 713.888 1753.27 717.016 1753.5 719.744C1753.74 722.725 1753.77 725.688 1753.73 728.681C1753.66 734.402 1753.35 740.117 1752.81 745.809C1748.89 787.078 1733.01 827.866 1708.88 861.292C1705.2 866.39 1701.39 871.846 1696.93 876.291C1697.96 942.338 1708.17 1030.4 1708.35 1037.07C1708.38 1038.54 1708.35 1038.17 1707.79 1038.71C1705.6 1040.86 1703.04 1041.56 1702.22 1039.26C1700.67 1034.91 1700.93 1030.83 1698.61 1006.73C1694.49 963.764 1689.87 865.332 1689.88 861.345C1675.55 851.244 1665.4 835.71 1658.77 819.482C1655.25 810.874 1653.19 802.013 1651.63 792.841C1646.36 761.649 1646.53 730.468 1647.4 725.365Z" fill="#29446D"/>
</g>
<path id="Vector_101" d="M1745.93 671.466C1745.39 666.709 1745.11 661.84 1745.11 656.884C1745.11 601.65 1780.11 556.875 1823.28 556.875C1866.45 556.875 1901.45 601.65 1901.45 656.884C1901.45 661.835 1901.17 666.703 1900.62 671.466H1745.93Z" fill="#4E9B87"/>
<path id="Vector_102" d="M1657.46 646.888C1656.92 640.173 1656.63 633.312 1656.63 626.326C1656.63 548.432 1691.63 485.284 1734.81 485.284C1777.98 485.284 1812.98 548.432 1812.98 626.326C1812.98 633.312 1812.7 640.173 1812.15 646.888H1657.46Z" fill="#50BFA5"/>
<path id="Vector_103" d="M1811.19 733.314C1811.88 726.6 1812.24 719.738 1812.24 712.753C1812.24 634.858 1767.88 571.71 1713.14 571.71C1658.41 571.71 1614.05 634.858 1614.05 712.753C1614.05 719.738 1614.41 726.6 1615.1 733.314H1811.19V733.314Z" fill="#4E9B87"/>
<path id="Vector_104" d="M1735.11 571.71C1762.46 571.71 1786.89 591.742 1803.02 623.157C1811.23 620.271 1819.96 618.718 1829 618.718C1877.57 618.718 1916.94 663.492 1916.94 718.727C1916.94 723.677 1916.62 728.546 1916.01 733.308H1648.1C1647.49 726.594 1647.17 719.732 1647.17 712.747C1647.17 634.858 1686.54 571.71 1735.11 571.71Z" fill="#50BFA5"/>
</g>
<path id="Vector_105" d="M1916.94 1036.6H5V1041.89H1916.94V1036.6Z" fill="#1A2538"/>
</g>
</g>
<g id="Group 1">
<g id="Group_75">
<g id="roll-go">
<path id="Vector_106" d="M761.927 1023C781.659 1003.27 781.659 971.275 761.927 951.543C742.194 931.811 710.202 931.811 690.47 951.543C670.738 971.275 670.738 1003.27 690.47 1023C710.202 1042.73 742.194 1042.73 761.927 1023Z" fill="#184655"/>
<path id="Vector_107" d="M759.506 995.223C763.85 976.827 752.458 958.392 734.062 954.048C715.665 949.704 697.231 961.096 692.887 979.493C688.543 997.889 699.935 1016.32 718.331 1020.67C736.727 1025.01 755.162 1013.62 759.506 995.223Z" fill="#5184CE"/>
</g>
<g id="roll-go_2">
<path id="Vector_108" d="M1159.62 1023C1179.35 1003.27 1179.35 971.278 1159.62 951.546C1139.89 931.813 1107.89 931.813 1088.16 951.546C1068.43 971.278 1068.43 1003.27 1088.16 1023C1107.89 1042.73 1139.89 1042.73 1159.62 1023Z" fill="#184655"/>
<path id="Vector_109" d="M1157.22 995.243C1161.56 976.847 1150.17 958.412 1131.77 954.068C1113.38 949.725 1094.94 961.116 1090.6 979.513C1086.26 997.909 1097.65 1016.34 1116.04 1020.69C1134.44 1025.03 1152.88 1013.64 1157.22 995.243Z" fill="#5184CE"/>
</g>
<g id="man-phone">
<g id="Group_76">
<path id="Vector_110" d="M727.275 984.47C717.634 979.069 711.638 968.352 709.463 952.623C707.741 940.178 708.394 924.558 711.397 906.198C716.501 874.998 726.783 846.258 726.886 845.972L728.499 846.555C728.396 846.841 718.16 875.455 713.085 906.501C708.434 934.943 707.266 971.299 728.11 982.976L727.275 984.47Z" fill="#1A2538"/>
</g>
<g id="Group_77">
<path id="Vector_111" d="M736.429 984.47C726.788 979.069 720.792 968.352 718.618 952.623C716.896 940.178 717.548 924.558 720.552 906.198C725.656 874.998 735.937 846.258 736.04 845.972L737.654 846.555C737.551 846.841 727.315 875.455 722.24 906.501C717.588 934.943 716.421 971.299 737.265 982.976L736.429 984.47Z" fill="#1A2538"/>
</g>
<g id="Group_78">
<path id="Vector_112" d="M740.663 830.003C740.629 829.888 737.328 818.525 736.99 801.194C736.681 785.208 738.895 760.702 751.208 734.726C756.73 723.077 768.402 708.938 780.761 693.965C801.777 668.504 825.59 639.649 828.439 612.838C830.768 590.907 825.63 578.039 820.915 571.104C815.823 563.62 810.107 561.251 810.05 561.229L810.685 559.632C810.937 559.735 816.865 562.161 822.254 570.023C827.175 577.198 832.536 590.483 830.145 613.015C827.244 640.342 803.253 669.408 782.083 695.052C769.792 709.94 758.189 724.004 752.759 735.458C729.466 784.59 742.174 829.07 742.306 829.511L740.663 830.003Z" fill="#1A2538"/>
</g>
<path id="Vector_113" d="M752.031 800.228L728.733 794.876L713.929 859.316L737.227 864.668L752.031 800.228Z" fill="#5184CE"/>
<path id="Vector_114" d="M740.791 857.127L714.024 850.978L712.202 858.908L738.969 865.057L740.791 857.127Z" fill="#184655"/>
<path id="Vector_115" d="M754.03 799.502L727.264 793.353L725.442 801.283L752.208 807.432L754.03 799.502Z" fill="#184655"/>
<path id="Vector_116" d="M840.712 520.558L838.95 522.138C838.046 522.95 836.678 522.916 835.9 522.063L804.626 487.659C803.847 486.807 803.956 485.456 804.86 484.644L806.622 483.065C807.526 482.252 808.894 482.287 809.672 483.139L840.947 517.543C841.725 518.396 841.622 519.746 840.712 520.558Z" fill="#13375B"/>
<path id="Vector_117" d="M946.74 492.608C942.563 489.21 919.207 486.08 919.619 491.023C920.031 495.967 888.087 561.182 888.087 561.182L850.65 528.392C850.301 527.247 844.271 516.067 844.088 513.864C843.893 511.553 837.187 507.508 834.075 508.103C830.962 508.698 836.741 512.606 837.119 513.326C838.149 515.278 834.161 516.016 834.161 516.016C834.161 516.016 822.695 509.716 822.449 506.014C822.203 502.312 819.839 494.548 817.362 496.173C816.086 497.008 816.097 502.518 816.492 505.133C815.754 502.169 814.713 498.816 813.7 498.485C811.846 497.878 810.919 500.241 811.257 501.397C811.595 502.558 814.587 515.152 815.502 516.571C816.389 517.955 834.91 532.883 837.577 536.127C837.577 536.127 870.991 581.454 894.141 587.902C897.494 588.835 907.209 577.5 918.012 564.06C928.814 550.62 959.802 503.233 946.74 492.608Z" fill="#EA9081"/>
<path id="Vector_118" d="M904.526 516.182C917.892 486.126 935.577 438.133 956.81 435.472C956.81 435.472 970.016 432.726 976.899 451.012C980.778 461.603 962.663 513.778 939.502 548.377C931.795 536.299 917.434 522.052 904.526 516.182Z" fill="#274F89"/>
<path id="Vector_119" d="M1023.46 443.265C1035.34 445.027 1042.57 489.816 1042.57 489.816L1078.56 481.257C1078.56 481.257 1066.36 435.106 1044.78 417.769C1023.19 400.433 975.903 418.181 958.83 432.577C941.757 446.978 951.632 461.586 951.632 461.586C951.632 461.586 1011.57 441.503 1023.46 443.265Z" fill="#13375B"/>
<path id="Vector_120" d="M938.209 459.652C938.209 459.652 945.739 479.42 948.279 495.904C950.82 512.394 963.705 524.873 970.062 566.137C976.418 607.402 986.757 644.798 986.757 644.798C986.757 644.798 1032.46 642.641 1040.23 631.833C1048 621.019 1033.65 532.774 1019.73 490.697C1005.81 448.615 1043.21 432.274 1021.39 420.533C999.568 408.786 974.484 421.46 963.836 426.604C953.194 431.747 936.807 450.554 938.209 459.652Z" fill="#184655"/>
<path id="Vector_121" d="M1017.1 485.085C1017.1 485.085 1026.36 517.538 1026.3 551.524C1026.24 585.511 1040.45 650.864 1040.45 650.864C1040.45 650.864 1077.04 670.786 1084.72 650.629C1086.16 646.841 1085.62 603.969 1083.92 586.215C1082.13 567.362 1071.81 501.975 1068.44 480.793C1067.73 476.348 1065.92 472.171 1063.17 468.635C1054.35 457.283 1034.21 432.228 1028.22 431.988C1020.38 431.673 1008.88 450.125 1017.1 485.085Z" fill="#F7CC7F"/>
<path id="Vector_122" d="M1025.32 577.506C1025.04 575.366 1024.75 573.226 1024.49 571.104C1034.81 574.588 1068.84 567.562 1082.27 564.278C1082.55 566.509 1082.81 568.569 1083.02 570.423C1070.71 573.438 1037.61 581.483 1025.32 577.506Z" fill="#13375B"/>
<path id="Vector_123" d="M1085.69 620.979C1085.73 623.028 1085.75 625.03 1085.78 626.964C1072.55 631.587 1044.86 621.815 1031.59 617.26C1031.19 614.995 1030.78 612.654 1030.37 610.257C1042.72 614.497 1074.04 624.881 1085.69 620.979Z" fill="#13375B"/>
<path id="Vector_124" d="M1085.48 612.512C1079.78 616.036 1044.32 638.345 1035.81 639.97C1035.47 638.225 1035.09 636.279 1034.69 634.162C1040.66 632.824 1067.7 616.185 1085.25 605.405C1085.34 607.774 1085.42 610.149 1085.48 612.512Z" fill="#13375B"/>
<path id="Vector_125" d="M922.039 961.681C922.039 961.681 923.292 984.264 923.304 984.316C923.767 987.182 925.581 994.266 925.581 996.875C925.581 1006.67 882.806 988.561 892.39 984.224C893.26 983.83 897.803 980.86 898.089 977.53C898.529 972.392 899.645 962.007 899.645 962.007L922.039 961.681Z" fill="#F7A491"/>
<path id="Vector_126" d="M892.499 984.127C892.499 984.127 902.54 987.125 907.684 987.869C912.828 988.618 919.608 982.313 923.247 984.018C927.252 985.895 926.846 1004.35 926.846 1004.35C926.846 1004.35 873.234 1007.57 858.094 1002.6C852.098 1000.63 871.969 991.101 892.499 984.127Z" fill="#F47458"/>
<path id="Vector_127" d="M1002.16 963.849C1002.16 963.849 1003.41 986.433 1003.42 986.478C1003.89 989.345 1005.7 996.428 1005.7 999.037C1005.7 1008.83 962.927 990.724 972.51 986.387C973.38 985.992 979.273 980.802 979.56 977.472C980 972.334 979.766 964.164 979.766 964.164L1002.16 963.849Z" fill="#F7A491"/>
<path id="Vector_128" d="M972.619 986.295C972.619 986.295 982.661 989.293 987.805 990.037C992.948 990.781 999.729 984.481 1003.37 986.181C1007.37 988.057 1007.53 1004.93 1007.53 1004.93C1007.53 1004.93 950.219 1009.16 936.744 1005.19C930.691 1003.41 952.084 993.27 972.619 986.295Z" fill="#F47458"/>
<path id="Vector_129" d="M948.497 637.812L925.153 648.071L892.367 830.815L893.906 969.542L924.403 970.263C924.403 970.263 938.587 848.913 938.587 839.506C938.587 830.1 1004.29 674.934 1004.29 674.934L948.497 637.812Z" fill="#1A2538"/>
<path id="Vector_130" d="M948.33 647.997C948.33 647.997 961.656 790.575 961.656 814.606C961.656 838.637 972.459 973.152 972.459 973.152L1003.02 972.969C1003.02 972.969 1005.23 931.968 1008.51 871.651C1009.02 862.204 1007.84 843.145 1008.51 833.361C1013.26 763.019 1023.74 670.724 1019.25 644.478C1018.52 640.256 1015.53 631.113 1012.89 628.326C992.874 607.231 948.33 647.997 948.33 647.997Z" fill="#283A56"/>
<path id="Vector_131" d="M1126.62 984.195C1125.67 981.666 1122.85 980.385 1120.32 981.334L1061.12 1003.57H822.712L762.057 868.904L754.063 894.325L807.567 1012.39L807.572 1012.38C807.744 1012.99 808.213 1013.35 809.312 1013.35H1063.6C1065.05 1013.35 1123.76 990.489 1123.76 990.489C1126.29 989.539 1127.57 986.724 1126.62 984.195Z" fill="#1A2538"/>
<path id="Vector_132" d="M921.347 659.858L931.761 594.042C931.761 594.042 922.349 533.427 923.001 491.848C923.39 473.413 934.198 448.672 936.647 448.146C948.886 445.514 952.691 426.381 973.146 440.416C997.234 457.283 1024.23 524.57 1021.91 658.582C1021.91 658.588 947.295 668.091 921.347 659.858Z" fill="#5184CE"/>
<path id="Vector_133" d="M924.563 426.026L929.724 443.809C929.724 443.809 935.096 469.974 944.669 472.755C954.235 475.536 965.936 440.685 965.936 440.685L940.469 391.645L924.563 426.026Z" fill="#F7A491"/>
<path id="Vector_134" d="M947.644 405.462C948.199 421.866 937.705 434.826 928.94 441.103L924.568 426.026L940.475 391.639L947.644 405.462Z" fill="#F47458"/>
<g id="Group_79">
<path id="Vector_135" d="M940.583 362.481C941.253 362.047 955.208 398.802 947.878 411.539C940.549 424.275 922.343 432.154 913.617 425.528C903.965 418.199 894.873 377.306 907.541 363.002C920.209 348.692 940.583 362.481 940.583 362.481Z" fill="#F7A491"/>
<path id="Vector_136" d="M917.926 344.956C929.981 342.593 947.164 346.369 957.491 356.926C970.188 369.902 955.145 419.6 955.145 419.6L948.422 410.474C948.422 410.474 943.885 405.085 945.178 398.985C946.477 392.886 937.534 391.135 934.198 387.101C931.635 383.995 929.678 375.961 925.576 370.789C925.576 370.789 912.925 364.896 905.27 366.429C892.207 369.038 900.658 348.343 917.926 344.956Z" fill="#13375B"/>
<path id="Vector_137" d="M939.182 394.151C937.688 398.499 938.592 402.75 941.202 403.648C943.811 404.547 947.141 401.743 948.64 397.395C950.133 393.046 949.229 388.795 946.62 387.897C944.011 387.004 940.681 389.802 939.182 394.151Z" fill="#F7A491"/>
<path id="Vector_138" d="M907.661 409.576L923.069 404.329C923.069 404.329 924.723 410.406 918.012 412.912C909.83 415.967 907.661 409.576 907.661 409.576Z" fill="white"/>
</g>
<path id="Vector_139" d="M943.021 508.509C939.29 482.315 936.63 446.029 960.111 432.863C968.488 428.063 979.765 431.015 988.302 433.132C978.106 432.898 969.112 437.933 964.557 441.286C945.464 454.113 949.149 483.963 952.633 507.136C961.399 565.405 1017.06 547.577 1017.06 547.577L1019.34 557.881C1019.34 557.881 990.396 565.245 967.973 557.149C950.087 550.701 943.021 508.509 943.021 508.509Z" fill="#184655"/>
<path id="Vector_140" d="M805.896 540.596C813.254 538.061 826.58 537.094 831.552 541.964C834.235 544.596 897.58 561.085 899.639 559.735C904.583 556.485 920.975 513.613 930.056 489.633C939.136 465.66 942.884 463.806 951.289 460.624C958.469 457.907 980.074 468.761 978.3 481.074C974.873 504.859 925.484 590.712 920.197 592.755C900.543 600.364 821.825 558.247 820.337 557.521C818.358 556.554 812.499 559.306 810.519 558.339C808.54 557.372 804.506 564.078 801.914 558.728C801.239 557.332 798.538 543.131 805.896 540.596Z" fill="#F7A491"/>
<g id="Group_80">
<path id="Vector_141" d="M732.417 918.559L743.686 920.826L815.978 561.636L804.709 559.369L732.417 918.559Z" fill="#1A2538"/>
<path id="Vector_142" d="M723.408 941.597L743.128 945.569L793.9 693.431L774.18 689.46L723.408 941.597Z" fill="#F47458"/>
<path id="Vector_143" d="M721.599 1001.34C729.38 1002.91 736.956 997.864 738.524 990.089L747.524 945.385C747.724 944.401 747.083 943.44 746.099 943.24L721.496 938.285C720.512 938.085 719.551 938.725 719.356 939.71L710.356 984.413C708.782 992.194 713.817 999.77 721.599 1001.34Z" fill="#1A2538"/>
<path id="Vector_144" d="M724.523 930.102L746.465 934.519C748.187 934.868 749.864 933.753 750.207 932.03L771.354 826.981C771.703 825.259 770.587 823.582 768.865 823.239L746.923 818.822C745.201 818.473 743.524 819.589 743.181 821.311L722.034 926.36C721.691 928.083 722.806 929.759 724.523 930.102Z" fill="#1A2538"/>
<path id="Vector_145" d="M801.914 558.733C800.975 563.402 803.996 567.945 808.665 568.889C813.334 569.828 817.877 566.807 818.821 562.138C819.76 557.469 816.738 552.926 812.07 551.982C807.401 551.038 802.852 554.065 801.914 558.733Z" fill="#F47458"/>
</g>
<path id="Vector_146" d="M912.175 514.951C925.541 484.896 948.422 438.133 969.661 435.472C969.661 435.472 982.866 432.726 989.749 451.012C993.629 461.603 975.514 513.778 952.353 548.377C944.64 536.299 925.083 520.822 912.175 514.951Z" fill="#466EB6"/>
<g id="Group_81">
<path id="Vector_147" d="M1041.56 660.178L1029.93 661.551C1024.75 662.164 1020.05 658.462 1019.44 653.278L1010.32 576.168C1009.71 570.984 1013.41 566.286 1018.6 565.674L1030.23 564.301C1035.41 563.689 1040.11 567.396 1040.72 572.574L1049.84 649.685C1050.45 654.869 1046.75 659.566 1041.56 660.178Z" fill="#50BFA5"/>
<path id="Vector_148" d="M1043.02 591.714L1012.62 595.308L1013.38 601.763L1043.78 598.17L1043.02 591.714Z" fill="#13375B"/>
</g>
</g>
</g>
</g>
</g>
<defs>
<clipPath id="clip0">
<rect width="1917" height="1042" fill="white"/>
</clipPath>
</defs>
</svg>
