<svg xmlns="http://www.w3.org/2000/svg" width="32" height="32" viewBox="0 0 32 32"><g transform="rotate(90 511.927 931.927)"><rect width="5" height="5" x="-417.5" y="1424.862" fill="#25b39e" stroke="#34485c" stroke-linecap="round" stroke-linejoin="round" color="#000" style="isolation:auto;mix-blend-mode:normal" overflow="visible"/><rect width="5" height="5" x="-406.5" y="1417.362" fill="#f05542" stroke="#34485c" stroke-linecap="round" stroke-linejoin="round" color="#000" style="isolation:auto;mix-blend-mode:normal" overflow="visible"/><rect width="5" height="5" x="-406.5" y="1432.362" fill="#f05542" stroke="#34485c" stroke-linecap="round" stroke-linejoin="round" color="#000" style="isolation:auto;mix-blend-mode:normal" overflow="visible"/><rect width="5" height="5" x="-395.5" y="1421.362" fill="#f8b84e" stroke="#34485c" stroke-linecap="round" stroke-linejoin="round" color="#000" style="isolation:auto;mix-blend-mode:normal" overflow="visible"/><rect width="5" height="5" x="-395.5" y="1413.362" fill="#f8b84e" stroke="#34485c" stroke-linecap="round" stroke-linejoin="round" color="#000" style="isolation:auto;mix-blend-mode:normal" overflow="visible"/><rect width="5" height="5" x="-395.5" y="1436.362" fill="#f8b84e" stroke="#34485c" stroke-linecap="round" stroke-linejoin="round" color="#000" style="isolation:auto;mix-blend-mode:normal" overflow="visible"/><rect width="5" height="5" x="-395.5" y="1428.362" fill="#f8b84e" stroke="#34485c" stroke-linecap="round" stroke-linejoin="round" color="#000" style="isolation:auto;mix-blend-mode:normal" overflow="visible"/><path fill="none" stroke="#34485c" stroke-linecap="round" stroke-linejoin="round" d="M-396 1423.8622l-2 0 0-8 2 0M-401 1419.8622l3 0M-396 1438.8622l-2 0 0-8 2 0M-401 1434.8622l3 0M-407.007 1434.8622l-2 0 0-15.0003 2 0M-412.00688 1427.3621l3 0"/></g></svg>