<svg xmlns="http://www.w3.org/2000/svg" width="32" height="32" viewBox="0 0 32 32"><g transform="translate(417 -1264.016)"><path fill="#fcd062" d="m -410,1286.9229 19,0 0,9.0929 -19,0 z" color="#000" overflow="visible" style="isolation:auto;mix-blend-mode:normal"/><path fill="#fcd062" d="m -406.19999,1281.0872 11.39998,0 c 2.1052,0 3.80001,1.6948 3.80001,3.8 l 0,3.7999 c 0,2.1053 -1.69481,3.8001 -3.80001,3.8001 l -11.39998,0 c -2.1052,0 -3.80001,-1.6948 -3.80001,-3.8001 l 0,-3.7999 c 0,-2.1052 1.69481,-3.8 3.80001,-3.8 z" color="#000" overflow="visible" style="isolation:auto;mix-blend-mode:normal"/><path fill="#fff" style="isolation:auto;mix-blend-mode:normal" d="m -403.35,1281.0872 5.7,0 -2.85,8.55 z" color="#000" overflow="visible"/><g transform="translate(-.5)"><path fill="#fcd062" d="m -400,1268.3622 a 4.1350107,4.1350107 0 0 0 -4.13501,4.135 4.1350107,4.1350107 0 0 0 0.0173,0.3542 c 0.17875,2.6757 2.32709,3.3019 2.32709,5.0177 l 0.47073,0 c -0.25809,0.063 -0.45227,0.2848 -0.45227,0.563 l 0,2.3628 c 0,0.3273 0.26346,0.5907 0.59072,0.5907 l 2.36286,0 c 0.32726,0 0.59072,-0.2634 0.59072,-0.5907 l 0,-2.3628 c 0,-0.2782 -0.19418,-0.4997 -0.45227,-0.563 l 0.47073,0 c 0,-1.7032 2.11756,-2.3327 2.32363,-4.9589 a 4.1350107,4.1350107 0 0 0 0.0208,-0.413 4.1350107,4.1350107 0 0 0 -4.13501,-4.135 z" color="#000" overflow="visible" style="isolation:auto;mix-blend-mode:normal"/><path fill="#576d7e" style="isolation:auto;mix-blend-mode:normal" d="m -401.77215,1277.8691 0,0.563 0,2.3628 c 0,0.3273 0.26346,0.5907 0.59072,0.5907 l 2.36286,0 c 0.32726,0 0.59072,-0.2634 0.59072,-0.5907 l 0,-2.3628 0,-0.563 z" color="#000" overflow="visible"/><path fill="none" stroke="#2b4255" stroke-linecap="round" stroke-linejoin="round" d="M-402.06295 1277.8622l4.1259 0M-402.06295 1279.8622l4.1259 0"/></g><path fill="none" stroke="#f8b84e" stroke-linecap="round" stroke-linejoin="round" d="M-400.5 1266.8551l0-2M-397.32163 1267.7541l1-1.732M-403.85515 1267.7541l-1-1.732M-406.1582 1270.1219l-1.73203-1M-395.01858 1270.1219l1.73203-1M-394.20798 1273.324l1.99998-.0001M-406.9688 1273.324l-1.99998-.0001"/></g></svg>