<svg xmlns="http://www.w3.org/2000/svg" width="32" height="32" viewBox="0 0 32 32"><g transform="translate(457 -1231.22)"><path fill="#2b4255" d="m -451.84894,1244.3629 0,0 c -0.62765,0 -1.10786,0.3327 -1.40342,0.7947 -0.31382,0.4429 -0.48019,1.0158 -0.64591,1.6064 -0.31383,1.1821 -0.55393,2.4556 -1.0524,2.973 l -0.29556,0.2956 0.36928,0.2394 c 0.70204,0.4248 1.40342,0.7392 2.12372,0.9416 0.16637,0.056 0.18464,0.1481 0.20357,0.2955 -0.0182,0.5546 -0.24012,0.9788 -0.60939,1.3851 -0.38756,0.4059 -0.90494,0.7752 -1.45887,1.1451 -0.55393,0.3687 -1.14504,0.7569 -1.58805,1.2182 -0.46193,0.4619 -0.79403,1.0524 -0.79403,1.7544 l 0,0.3503 0.34971,0 c 5.39181,0 6.77696,0 11.35647,0 l 0.35101,0 0,-0.3503 c 0,-0.702 -0.35101,-1.2742 -0.79402,-1.7362 -0.46193,-0.4613 -1.01586,-0.8496 -1.56979,-1.2371 -0.55393,-0.3692 -1.08958,-0.7391 -1.47713,-1.145 -0.36928,-0.4064 -0.59111,-0.8306 -0.59111,-1.3668 0,-0.2219 0.0927,-0.2957 0.16571,-0.3322 0.68311,-0.1847 1.36688,-0.499 2.04999,-0.9421 l 0.35101,-0.2213 -0.29555,-0.2954 c -0.53566,-0.5539 -0.79403,-1.8282 -1.16331,-3.0097 -0.18465,-0.5906 -0.38821,-1.1633 -0.73857,-1.6065 -0.3321,-0.4436 -0.84949,-0.7574 -1.51433,-0.7574 l -1.32903,0 z"/><path fill="none" stroke="#576d7e" d="M-443.5 1237.2193l0 20M-425 1256.8622l-19 0"/><rect style="isolation:auto;mix-blend-mode:normal" width="2" height="8" x="-441" y="1248.362" fill="#25b39e" color="#000" overflow="visible" rx="0" ry="0"/><rect width="2" height="14" x="-437" y="1242.362" fill="#25b39e" color="#000" overflow="visible" rx="0" ry="0" style="isolation:auto;mix-blend-mode:normal"/><rect style="isolation:auto;mix-blend-mode:normal" width="2" height="6" x="-433" y="1250.362" fill="#25b39e" color="#000" overflow="visible" rx="0" ry="0"/><rect width="2" height="18.571" x="-429" y="1237.791" fill="#25b39e" color="#000" overflow="visible" rx="0" ry="0" style="isolation:auto;mix-blend-mode:normal"/></g></svg>