<svg xmlns="http://www.w3.org/2000/svg" width="32" height="32" viewBox="0 0 32 32"><g transform="translate(451 -1336.362)"><circle style="isolation:auto;mix-blend-mode:normal" cx="-435" cy="1352.362" r="6" fill="#25b39e" color="#000" overflow="visible"/><g fill="#cad1d8" transform="translate(-451 316)"><path d="M16.5 1021.3798l0 7.2578a7.7500086 7.7500086 0 0 1 2.929688.7851l3.626953-6.2832A15 15 0 0 0 16.5 1021.3798zM15.5 1021.3876a15 15 0 0 0-6.5585938 1.7461l3.6269528 6.2851A7.7500086 7.7500086 0 0 1 15.5 1028.6298l0-7.2422zM23.925781 1023.6376l-3.626953 6.2812a7.7500086 7.7500086 0 0 1 2.144531 2.1465l6.275391-3.6211a15 15 0 0 0-4.792969-4.8066zM8.0800781 1023.6454a15 15 0 0 0-4.8066406 4.793l6.28125 3.6269a7.7500086 7.7500086 0 0 1 2.1464845-2.1445l-3.6210939-6.2754zM29.228516 1029.3036l-6.285157 3.6289a7.7500086 7.7500086 0 0 1 .789063 2.9297l7.242187 0a15 15 0 0 0-1.746093-6.5586zM2.7773438 1029.3056a15 15 0 0 0-1.7597657 6.5566l7.2578125 0a7.7500086 7.7500086 0 0 1 .7851563-2.9297l-6.2832031-3.6269zM1.0253906 1036.8622a15 15 0 0 0 1.7480469 6.5605l6.2832031-3.6289a7.7500086 7.7500086 0 0 1-.7890625-2.9316l-7.2421875 0zM23.724609 1036.8622a7.7500086 7.7500086 0 0 1-.785156 2.9297l6.283203 3.6289a15 15 0 0 0 1.759766-6.5586l-7.257813 0zM9.5566406 1040.6591l-6.2734375 3.623a15 15 0 0 0 4.7929688 4.8047l3.6250001-6.2793a7.7500086 7.7500086 0 0 1-2.1445314-2.1484zM22.445312 1040.661a7.7500086 7.7500086 0 0 1-2.148437 2.1446l3.623047 6.2734a15 15 0 0 0 4.804687-4.793l-6.279297-3.625zM12.572266 1043.3017l-3.6289066 6.2832A15 15 0 0 0 15.5 1051.3446l0-7.2578a7.7500086 7.7500086 0 0 1-2.927734-.7851zM19.431641 1043.3056A7.7500086 7.7500086 0 0 1 16.5 1044.0946l0 7.2422a15 15 0 0 0 6.558594-1.7461l-3.626953-6.2851z" color="#000" overflow="visible" style="isolation:auto;mix-blend-mode:normal"/></g><path fill="#f8b84e" style="isolation:auto;mix-blend-mode:normal" d="m -434.5,1337.3798 0,7.2578 a 7.7500086,7.7500086 0 0 1 2.92969,0.7851 l 3.62695,-6.2832 a 15,15 0 0 0 -6.55664,-1.7597 z" color="#000" overflow="visible"/><path fill="#25b39e" style="isolation:auto;mix-blend-mode:normal" d="m -435.5,1337.3876 a 15,15 0 0 0 -6.55859,1.7461 l 3.62695,6.2851 a 7.7500086,7.7500086 0 0 1 2.93164,-0.789 l 0,-7.2422 z" color="#000" overflow="visible"/><path fill="#f8b84e" style="isolation:auto;mix-blend-mode:normal" d="m -427.07422,1339.6376 -3.62695,6.2812 a 7.7500086,7.7500086 0 0 1 2.14453,2.1465 l 6.27539,-3.6211 a 15,15 0 0 0 -4.79297,-4.8066 z" color="#000" overflow="visible"/><path fill="#25b39e" style="isolation:auto;mix-blend-mode:normal" d="m -442.91992,1339.6454 a 15,15 0 0 0 -4.80664,4.793 l 6.28125,3.6269 a 7.7500086,7.7500086 0 0 1 2.14648,-2.1445 l -3.62109,-6.2754 z" color="#000" overflow="visible"/><path fill="#f8b84e" style="isolation:auto;mix-blend-mode:normal" d="m -421.77148,1345.3036 -6.28516,3.6289 a 7.7500086,7.7500086 0 0 1 0.78906,2.9297 l 7.24219,0 a 15,15 0 0 0 -1.74609,-6.5586 z" color="#000" overflow="visible"/><path fill="#25b39e" style="isolation:auto;mix-blend-mode:normal" d="m -448.22266,1345.3056 a 15,15 0 0 0 -1.75976,6.5566 l 7.25781,0 a 7.7500086,7.7500086 0 0 1 0.78516,-2.9297 l -6.28321,-3.6269 z" color="#000" overflow="visible"/><path fill="#2b4255" style="isolation:auto;mix-blend-mode:normal" d="m -449.97461,1352.8622 a 15,15 0 0 0 1.74805,6.5605 l 6.2832,-3.6289 a 7.7500086,7.7500086 0 0 1 -0.78906,-2.9316 l -7.24219,0 z" color="#000" overflow="visible"/><path fill="#f05542" style="isolation:auto;mix-blend-mode:normal" d="m -427.27539,1352.8622 a 7.7500086,7.7500086 0 0 1 -0.78516,2.9297 l 6.28321,3.6289 a 15,15 0 0 0 1.75976,-6.5586 l -7.25781,0 z" color="#000" overflow="visible"/><path fill="#2b4255" style="isolation:auto;mix-blend-mode:normal" d="m -441.44336,1356.6591 -6.27344,3.623 a 15,15 0 0 0 4.79297,4.8047 l 3.625,-6.2793 a 7.7500086,7.7500086 0 0 1 -2.14453,-2.1484 z" color="#000" overflow="visible"/><path fill="#f05542" style="isolation:auto;mix-blend-mode:normal" d="M-428.55469 1356.661a7.7500086 7.7500086 0 0 1-2.14843 2.1446l3.62304 6.2734a15 15 0 0 0 4.80469-4.793l-6.2793-3.625zM-438.42773 1359.3017l-3.62891 6.2832a15 15 0 0 0 6.55664 1.7597l0-7.2578a7.7500086 7.7500086 0 0 1-2.92773-.7851zM-431.56836 1359.3056a7.7500086 7.7500086 0 0 1-2.93164.789l0 7.2422a15 15 0 0 0 6.55859-1.7461l-3.62695-6.2851z" color="#000" overflow="visible"/><path fill="#2b4255" style="isolation:auto;mix-blend-mode:normal" d="m -428.99999,1352.3622 a 6.0000086,6.0000086 0 0 1 -3.00001,5.1961 6.0000086,6.0000086 0 0 1 -6,0 6.0000086,6.0000086 0 0 1 -3.00001,-5.1961" color="#000" overflow="visible"/><path fill="#f8b84e" d="m -435,1346.3622 a 6.0000086,6.0000086 0 0 1 6.00001,6 l -6.00001,0 z" color="#000" overflow="visible" style="isolation:auto;mix-blend-mode:normal"/><path fill="#f05542" style="isolation:auto;mix-blend-mode:normal" d="m -428.99999,1352.3622 a 6.0000086,6.0000086 0 0 1 -2.88241,5.1265 6.0000086,6.0000086 0 0 1 -5.87781,0.2009 L -435,1352.3622 Z" color="#000" overflow="visible"/></g></svg>