<svg xmlns="http://www.w3.org/2000/svg" width="32" height="32" viewBox="0 0 32 32"><g transform="translate(0 -1020.362)"><rect width="1" height="32" x="1036.362" y="-32" fill="#576d7e" color="#000" overflow="visible" rx="0" ry="0" transform="rotate(90)" style="isolation:auto;mix-blend-mode:normal"/><circle cx="1036.862" cy="-20.5" r="1.5" fill="#4bbfeb" color="#000" overflow="visible" style="isolation:auto;mix-blend-mode:normal" transform="rotate(90)"/><circle style="isolation:auto;mix-blend-mode:normal" cx="1036.862" cy="-28.5" r="1.5" fill="#f05542" color="#000" overflow="visible" transform="rotate(90)"/><circle cx="1036.862" cy="-12.5" r="1.5" fill="#f8b84e" color="#000" overflow="visible" style="isolation:auto;mix-blend-mode:normal" transform="rotate(90)"/><circle style="isolation:auto;mix-blend-mode:normal" cx="1036.862" cy="-4.5" r="1.5" fill="#25b39e" color="#000" overflow="visible" transform="rotate(90)"/><path fill="#25b39e" style="isolation:auto;mix-blend-mode:normal" d="m 2.0000174,1027.3622 4.9999652,0 c 0.5540096,0 1.0000174,0.446 1.0000174,1 l 0,3 c 0,0.554 -0.4460078,1 -1.0000174,1 l -1.2499913,0 -1.2499913,2 -1.2499913,-2 -1.2499913,0 C 1.4460078,1032.3622 1,1031.9162 1,1031.3622 l 0,-3 c 0,-0.554 0.4460078,-1 1.0000174,-1 z" color="#000" overflow="visible"/><path fill="#f8b84e" d="m 10.000017,1046.3622 4.999966,0 c 0.554009,0 1.000017,-0.446 1.000017,-1 l 0,-3 c 0,-0.554 -0.446008,-1 -1.000017,-1 l -1.249992,0 -1.249991,-2 -1.249991,2 -1.249992,0 c -0.5540092,0 -1.000017,0.446 -1.000017,1 l 0,3 c 0,0.554 0.4460078,1 1.000017,1 z" color="#000" overflow="visible" style="isolation:auto;mix-blend-mode:normal"/><path fill="#4bbfeb" d="m 18.000017,1027.3622 4.999966,0 c 0.554009,0 1.000017,0.446 1.000017,1 l 0,3 c 0,0.554 -0.446008,1 -1.000017,1 l -1.249992,0 -1.249991,2 -1.249991,-2 -1.249992,0 c -0.554009,0 -1.000017,-0.446 -1.000017,-1 l 0,-3 c 0,-0.554 0.446008,-1 1.000017,-1 z" color="#000" overflow="visible" style="isolation:auto;mix-blend-mode:normal"/><path fill="#f05542" style="isolation:auto;mix-blend-mode:normal" d="m 26.000017,1046.3622 4.999966,0 c 0.554009,0 1.000017,-0.446 1.000017,-1 l 0,-3 c 0,-0.554 -0.446008,-1 -1.000017,-1 l -1.249992,0 -1.249991,-2 -1.249991,2 -1.249992,0 c -0.554009,0 -1.000017,0.446 -1.000017,1 l 0,3 c 0,0.554 0.446008,1 1.000017,1 z" color="#000" overflow="visible"/></g></svg>