<svg xmlns="http://www.w3.org/2000/svg" width="32" height="32" viewBox="0 0 32 32"><g transform="translate(0 -1020.362)"><circle cx="16" cy="1036.362" r="14.5" fill="none" stroke="#cad1d8" stroke-dashoffset="1.1" stroke-linecap="square" stroke-linejoin="round" stroke-width="3" style="isolation:auto;mix-blend-mode:normal" color="#000" overflow="visible"/><path fill="none" stroke="#60c5b8" stroke-dashoffset="1.1" stroke-linecap="square" stroke-linejoin="round" stroke-width="3" style="isolation:auto;mix-blend-mode:normal" d="m 16.000001,1021.8622 a 14.5,14.5 0 0 1 13.396253,8.9511 14.5,14.5 0 0 1 -3.143205,15.8019 14.5,14.5 0 0 1 -15.801958,3.1432 14.5,14.5 0 0 1 -8.9510902,-13.3962" color="#000" overflow="visible"/><path fill="#576d7e" style="line-height:normal;text-indent:0;text-align:start;text-decoration-line:none;text-decoration-style:solid;text-decoration-color:#000;text-transform:none;block-progression:tb;isolation:auto;mix-blend-mode:normal" d="m 17.134785,1033.753 c -0.517386,0.5173 -0.518764,1.3705 -0.0014,1.8878 0.517393,0.5173 1.372057,0.5173 1.889443,0 0.517385,-0.5173 0.517392,-1.3718 0,-1.8892 -0.517393,-0.5173 -1.370671,-0.5159 -1.888057,0 z m 0.707159,0.7071 c 0.135208,-0.1352 0.338531,-0.1366 0.473739,-0 0.135216,0.1352 0.135209,0.3399 0,0.475 -0.135208,0.1352 -0.33991,0.1352 -0.475125,0 -0.135202,-0.1352 -0.133823,-0.3384 0.0014,-0.4736 z" color="#000" font-family="sans-serif" font-weight="400" overflow="visible" white-space="normal"/><path fill="#576d7e" fill-rule="evenodd" style="line-height:normal;text-indent:0;text-align:start;text-decoration-line:none;text-decoration-style:solid;text-decoration-color:#000;text-transform:none;block-progression:tb;isolation:auto;mix-blend-mode:normal" d="m 22.064453,1033.3633 a 0.50004994,0.50004994 0 0 0 -0.34375,0.1504 l -4.990234,4.9883 a 0.50004994,0.50004994 0 1 0 0.707031,0.707 l 4.990234,-4.9883 a 0.50004994,0.50004994 0 0 0 -0.363281,-0.8574 z" color="#000" font-family="sans-serif" font-weight="400" overflow="visible" white-space="normal"/><path fill="#576d7e" style="line-height:normal;text-indent:0;text-align:start;text-decoration-line:none;text-decoration-style:solid;text-decoration-color:#000;text-transform:none;block-progression:tb;isolation:auto;mix-blend-mode:normal" d="m 20.300423,1037.0839 c -0.517386,0.5173 -0.517393,1.3719 7e-6,1.8892 0.517378,0.5173 1.370664,0.5159 1.88805,-0 0.517378,-0.5173 0.518764,-1.3705 0.0014,-1.8878 -0.517386,-0.5173 -1.372051,-0.5173 -1.889443,0 z m 0.707158,0.7071 c 0.135209,-0.1352 0.33991,-0.1352 0.475126,0 0.135209,0.1352 0.133823,0.3385 -0.0014,0.4736 -0.135209,0.1352 -0.338524,0.1366 -0.473732,0 -0.135216,-0.1352 -0.135216,-0.3398 -8e-6,-0.475 z" color="#000" font-family="sans-serif" font-weight="400" overflow="visible" white-space="normal"/><g fill="#576d7e" font-family="Bebas Neue" font-size="8.475" font-weight="700" letter-spacing="0" transform="scale(1.00008 .99992)" word-spacing="0" style="line-height:125%;-inkscape-font-specification:'Bebas Neue Bold'"><path d="M9.4209457 1033.4401l0 .8476 1.8560763 0-1.3645127 5.0851.9322757 0 1.372988-5.119 0-.8137-2.7968273 0zM12.798194 1037.4574l0 .4916c0 .9492.474613 1.4916 1.389938 1.4916.915326 0 1.389939-.5424 1.389939-1.4916l0-1.3222c0-.8729-.347485-1.356-1.033979-1.356-.37291 0-.644117.1525-.813622.4322l.07628-1.4153 1.61877 0 0-.8476-2.457818 0-.169505 3.441.881424 0 0-.178c0-.4238.186456-.5848.483089-.5848.296633 0 .483088.161.483088.5848l0 1.3052c0 .4238-.186455.5763-.483088.5763-.296633 0-.483089-.1525-.483089-.5763l0-.5509-.881424 0z"/></g></g></svg>