<svg width="82" height="63"><path style="fill:#000000; stroke:none;" d="M0 0L0 16L1 16L9 0L0 0z"></path><path style="fill:#4942a2; stroke:none;" d="M9 0L9 4C13.224 3.61816 16.8621 5.67808 21 5.48997C25.4921 5.28576 29.5039 2.54948 34 2.22454C45.4535 1.39675 50.1977 10.5974 55 19C47.5434 21.1557 43.4623 14.8895 43 8L42 8L41 12C28.6448 8.63845 20.6874 24.7306 9 26L9 27L12 27C7.41231 37.2517 9 48.8518 9 60L41 60C40.0634 56.3248 40.2144 54.6238 43 52C41.7774 46.0753 44.2149 44.1106 50 45L59 39L60 44L61 44C65.5247 31.4203 79.1006 47.8041 65 50C63.1496 53.8082 61.2606 55.135 57 55L54 59L54 60L82 60L82 0L9 0z"></path><path style="fill:#202020; stroke:none;" d="M8 35C9.35343 31.9838 14.0458 28.0609 9 27L9 26C21.1718 25.3417 28.5087 9.67546 41 12L42 8L43 8C43.2093 15.0477 47.1469 22.5248 55 19C51.0833 9.19192 44.8319 0.898716 33 2.18827C28.8877 2.63647 25.1273 4.96901 21 5.15664C16.2438 5.37285 12.429 1.97245 8.04321 5.33256C-2.13468 13.1303 -3.56496 28.7897 8 35z"></path><path style="fill:#000000; stroke:none;" d="M0 30L0 63L45 63L45 62C34.5645 57.5782 20.2046 60 9 60L9 33L8 33L7 35L0 30z"></path><path style="fill:#202020; stroke:none;" d="M61 44L60 44L59 39L50 45C43.9609 43.6287 41.2319 45.7914 43 52C33.3378 57.7095 52.5117 69.2999 57 55C61.5219 55.7383 63.7166 54.4211 65 50C81.3643 48.7551 64.0335 29.7882 61 44z"></path><path style="fill:#000000; stroke:none;" d="M50 63L82 63L82 60C74.4346 60 54.6769 56.5151 50 63z"></path></svg>